PathFileType	4	(X/Y/Z)	RBDS012\RBDS012runT35.trc
DataRate	CameraRate	NumFrames	NumMarkers	Units	OrigDataRate	OrigDataStartFrame	OrigNumFrames
150.000000	150.000000	4	33	mm	150.000000	2812	4500
Frame#	Time	L.ASIS			L.Heel.Bottom			L.Heel.Lateral			L.Heel.Top			L.Iliac.Crest			L.MT1			L.MT5			L.PSIS			L.Shank.Bottom.Lateral			L.Shank.Bottom.Medial			L.Shank.Top.Lateral			L.Shank.Top.Medial			L.Thigh.Bottom.Lateral			L.Thigh.Bottom.Medial			L.Thigh.Top.Lateral			L.Thigh.Top.Medial			R.ASIS			R.ASY			R.Heel.Bottom			R.Heel.Lateral			R.Heel.Top			R.Iliac.Crest			R.MT1			R.MT5			R.PSIS			R.Shank.Bottom.Lateral			R.Shank.Bottom.Medial			R.Shank.Top.Lateral			R.Shank.Top.Medial			R.Thigh.Bottom.Lateral			R.Thigh.Bottom.Medial			R.Thigh.Top.Lateral			R.Thigh.Top.Medial			
		X1	Y1	Z1	X2	Y2	Z2	X3	Y3	Z3	X4	Y4	Z4	X5	Y5	Z5	X6	Y6	Z6	X7	Y7	Z7	X8	Y8	Z8	X9	Y9	Z9	X10	Y10	Z10	X11	Y11	Z11	X12	Y12	Z12	X13	Y13	Z13	X14	Y14	Z14	X15	Y15	Z15	X16	Y16	Z16	X17	Y17	Z17	X18	Y18	Z18	X19	Y19	Z19	X20	Y20	Z20	X21	Y21	Z21	X22	Y22	Z22	X23	Y23	Z23	X24	Y24	Z24	X25	Y25	Z25	X26	Y26	Z26	X27	Y27	Z27	X28	Y28	Z28	X29	Y29	Z29	X30	Y30	Z30	X31	Y31	Z31	X32	Y32	Z32	X33	Y33	Z33	

2813	18.74666666666667	2203.334653792194	965.8151874148859	871.0287217794728	2108.634027955206	33.83840958324102	956.3415701133024	2137.308694051937	46.73943949501917	908.602575274019	2121.034238029474	83.34468947440311	956.4712084332608	2151.194300940816	1027.423611990925	839.0017938261578	2335.962280251364	41.03177788822036	987.5819692316143	2304.293986842193	40.96428559490218	871.4854988648312	2047.94299842391	1015.529293915463	978.3102121284231	2215.928222578143	163.2554991294241	893.0222743998104	2171.350407005027	177.9697174393405	922.4182334794932	2227.072102592748	240.6782299148331	874.1173571934248	2185.736263253627	256.263304789467	905.0608807631289	2283.827645664396	613.2392718003764	836.6245656534564	2226.525691968823	582.9818645835298	869.5793986786276	2222.306956002199	703.7540746163891	820.4524871503617	2169.969243336158	677.1118232223638	855.2311834539222	2233.534412404119	958.9512294472344	1139.957726958975	1701.801078922183	414.5897290728757	1066.430981796171	1673.288042808304	615.2742254596791	1070.755029960711	1686.549625014106	589.5531977173956	1108.166222555076	1720.166579851025	595.5546291537212	1069.163685099726	2201.464313175933	1029.230018013845	1170.243083250567	1651.585788524602	394.4141495706365	1017.569171496437	1652.895970329201	416.4789741434197	1135.148539112069	2062.216432026194	1011.199065324586	1081.573936979682	1802.15316591281	516.5927684517522	1123.279146727932	1814.567263705899	557.7453167385597	1094.883886265715	1883.743708294688	507.4007591223026	1143.812333864023	1892.719494325734	552.4215970810031	1115.555746143961	2140.309691250685	543.930550664265	1172.996496712719	2088.571714807123	544.7585316261035	1120.724566050969	2124.509576584683	651.4894622124019	1187.125802702047	2072.974730317277	652.8363718052341	1140.7695459553	
2814	18.75333333333333	2200.768275491092	962.8595672683064	869.3798243751356	2085.914951161405	34.52195747781228	956.134565031898	2114.472546194435	47.4669826158892	908.3775765255917	2098.428371983948	84.00994431613127	956.3332570217444	2148.002172017315	1023.893969429155	838.570320626971	2313.082381167981	41.02430475731011	987.0670984943595	2281.198545063776	41.46651578547205	870.780577517291	2045.903512124248	1012.831347934149	978.7133067187088	2197.239002611303	162.879648740609	893.0877729777023	2153.00418969655	179.4457644418233	922.1092374499874	2211.50683153687	239.8212752855956	873.8527450874838	2170.545131892799	257.0942329415923	904.5264628458409	2278.142494834236	609.2930456263883	835.3959041502665	2220.519007870278	579.7582597608468	868.5069760009258	2217.73761815662	700.5355849831495	819.3564151174705	2165.114167628432	674.5460768184123	854.2439454904792	2231.074727039483	954.4529948574548	1139.222331993721	1718.526804446518	414.5833065724929	1065.352197783063	1688.667825964352	614.8920489002235	1071.777413887403	1702.33373709873	589.0147195422223	1108.676874955099	1735.700018593623	595.6120412168517	1069.613585806198	2197.651676425795	1024.366982231052	1170.569346878576	1668.186007321509	394.5804767398418	1016.73040166563	1670.09096180932	415.5346404979285	1134.13133109349	2059.209669352078	1007.324851538091	1081.536878431764	1818.236307296183	515.7647211278339	1123.21862941638	1831.220928822373	557.0676770302423	1095.311488862609	1899.587890108632	505.5443887125458	1144.188183045684	1909.25679784298	550.7408287680953	1116.276413309618	2151.620125781753	540.8862927183294	1173.630414687661	2099.36535457029	539.4101508271613	1122.08181249142	2131.92452121039	647.8949342074944	1187.412132280802	2079.950182443932	647.0035313973302	1141.571634829683	
2815	18.76	2198.40997488711	960.4348771218253	867.8948716258432	2063.175539168817	35.00245795753147	955.9775296010176	2091.59058667837	47.99408923878039	908.1848675988724	2075.68578238274	84.47247848966792	956.1893190453003	2145.036946276207	1021.451075914783	838.1374102590053	2290.072138707491	41.32717275712096	986.6133419659014	2258.002780579807	42.09976928379859	870.2149547620529	2044.061985115454	1010.977759851522	978.7333948778228	2177.855942651684	162.4380456903137	893.1569350071776	2134.060542508623	180.6680896040591	921.894967346943	2194.95646765591	238.8252982122502	873.6600377938241	2154.427488107839	257.5936247983927	904.1274953381162	2271.634746262281	605.3813573080645	834.3489416830533	2213.485432476857	576.7172813066896	867.3552530114736	2212.722322447049	697.5493094728897	818.3924957562203	2159.615996824893	672.3518741741141	853.1540501681593	2228.665312859637	950.9819408836636	1138.450787438881	1735.858739521276	412.8239366777251	1064.219213826399	1703.367609205461	612.5353099913059	1072.555310606845	1717.639416131687	586.6733893619164	1108.943162797347	1750.684583987764	594.0051620585521	1069.822904717895	2193.765105859444	1020.75350942358	1170.812528833034	1685.476684800177	392.5884871018346	1015.855161377538	1687.928651185649	412.6200369683277	1133.07398979752	2056.464314595396	1004.526971919471	1081.13209162397	1834.344718171887	513.8558379369234	1122.980794441233	1847.591448695679	555.3809308214214	1095.562011676863	1915.545362716004	503.1563533182999	1144.313927134019	1925.550117599813	548.5824352636446	1116.785716523423	2163.458269562895	539.0024983266952	1174.368845533149	2110.702158110185	535.194519194407	1123.580339775556	2139.812805239796	645.2972685115648	1187.854355890144	2087.470791922536	642.1238360108825	1142.566142155604	
2816	18.76666666666667	2196.327937086522	958.5372763099787	866.6268570053944	2040.320190635095	35.31972153900149	955.8766985152622	2068.594476645208	48.33880891458902	908.0338219885371	2052.769900679909	84.77391282436619	956.0514024868688	2142.382799901169	1020.037922847462	837.6731287867572	2266.915003585758	41.71258921266605	986.2727766157154	2234.698963868669	42.69573963273041	869.8210091721672	2042.418205197456	1009.934525356489	978.3524896601351	2157.818480961816	161.9202713792736	893.2429765285154	2114.517492667159	181.625498285138	921.7604700289951	2177.464382198312	237.7059222246315	873.5504722042645	2137.392406046751	257.7848650636871	903.8454844828952	2264.280316935822	601.5522305039216	833.5023617752353	2205.423597309123	573.917248985112	866.1758424505872	2207.230208271276	694.8287438248858	817.587246743034	2153.469418999133	670.5715567612529	852.0202494630761	2226.343877688757	948.6125354176535	1137.688245128641	1753.675372161189	409.3864477787056	1062.979875390755	1717.315551143166	608.2351531742424	1073.096899234652	1732.375755646889	582.5433729883364	1108.984870100382	1765.032149643392	590.752957234477	1069.830200992446	2189.949974111157	1018.421782753798	1170.967261356339	1703.372834421973	388.5308653406752	1014.862324142491	1706.287993234416	407.781527570978	1131.935113974588	2054.01102987427	1002.755004805038	1080.376837385588	1850.354657859333	510.9200851859434	1122.57489739651	1863.53914541501	552.7455893834748	1095.632418374644	1931.512350226087	500.3108503122219	1144.171396436938	1941.469088675549	546.023917221257	1117.065974928404	2175.744898746298	538.3244358041272	1175.191028106768	2122.568153732668	532.1813975507106	1125.129813192393	2148.110264893698	643.7325698212992	1188.438327747236	2095.515563210814	638.2553358462824	1143.695737471022	
